<?xml version="1.0" encoding="utf-8"?>
<!-- Generator: Adobe Illustrator 17.0.0, SVG Export Plug-In . SVG Version: 6.00 Build 0)  -->
<!DOCTYPE svg PUBLIC "-//W3C//DTD SVG 1.1//EN" "http://www.w3.org/Graphics/SVG/1.1/DTD/svg11.dtd">
<svg version="1.1" id="Layer_1" xmlns="http://www.w3.org/2000/svg" xmlns:xlink="http://www.w3.org/1999/xlink" x="0px" y="0px"
	 width="260.548px" height="172.052px" viewBox="0 0 260.548 172.052" enable-background="new 0 0 260.548 172.052"
	 xml:space="preserve">
<path fill="#2C328C" d="M0,0h260.267l0.281,81.11C229.127,69.159,129.162,40.559,0,76.2V0z"/>
<path fill="#FFF200" d="M0,172.052h260.267v-64.888C213.329,91.453,129.886,67.914,0,101.265V172.052z"/>
<path fill="#ED1C24" d="M260.267,107.163C213.329,91.453,129.886,67.914,0,101.265V76.2c129.162-35.641,229.127-7.041,260.548,4.91
	L260.267,107.163z"/>
<path fill="#FFF200" d="M82.905,60.92c6.444-17.8,21.18-33.168,46.789-32.975c25.608,0.192,42.696,14.773,47.313,33.919
	C143.994,58.425,121.999,57.829,82.905,60.92z"/>
<path fill="#2C328C" stroke="#2C328C" stroke-width="0.216" stroke-miterlimit="22.9256" d="M58.146,139.182l17.433-25.969h6.466
	l18.574,25.969h-6.846l-5.293-7.866H69.504l-4.977,7.866H58.146L58.146,139.182z M71.236,128.517H86.63l-4.744-7.189
	c-1.437-2.183-2.515-3.979-3.212-5.387c-0.581,1.669-1.395,3.32-2.451,4.964L71.236,128.517L71.236,128.517z M131.099,139.182
	v-2.763c-2.568,2.128-6.044,3.187-10.439,3.187c-1.933,0-3.751-0.212-5.43-0.635c-1.68-0.423-2.927-0.962-3.741-1.602
	c-0.823-0.647-1.394-1.433-1.722-2.364c-0.221-0.629-0.338-1.62-0.338-2.981v-11.651h5.568v10.43c0,1.669,0.116,2.787,0.338,3.368
	c0.359,0.84,1.098,1.493,2.229,1.977c1.141,0.478,2.546,0.714,4.216,0.714c1.669,0,3.233-0.242,4.701-0.731
	c1.469-0.49,2.504-1.161,3.106-2.001c0.612-0.846,0.919-2.074,0.919-3.676v-10.079h5.568v18.81h-4.975V139.182z M149.597,139.182
	v-18.81h5.008v2.848c1.278-1.33,2.462-2.213,3.55-2.637c1.078-0.423,2.271-0.641,3.571-0.641c1.88,0,3.782,0.345,5.726,1.028
	l-1.923,2.963c-1.352-0.466-2.715-0.695-4.078-0.695c-1.226,0-2.314,0.212-3.285,0.628c-0.973,0.424-1.659,1.004-2.071,1.748
	c-0.624,1.13-0.93,2.37-0.93,3.718v9.849h-5.568V139.182z M197.067,136.86c-2.071,1.004-4.058,1.711-5.959,2.128
	c-1.913,0.411-3.962,0.617-6.149,0.617c-3.614,0-6.381-0.502-8.325-1.512c-1.934-1.01-2.906-2.303-2.906-3.87
	c0-0.925,0.359-1.766,1.099-2.528c0.729-0.762,1.689-1.373,2.874-1.832c1.193-0.46,2.524-0.81,4.014-1.046
	c1.089-0.163,2.737-0.327,4.945-0.477c4.501-0.309,7.818-0.672,9.942-1.101c0.021-0.435,0.032-0.713,0.032-0.828
	c0-1.3-0.528-2.219-1.585-2.745c-1.415-0.726-3.539-1.082-6.339-1.082c-2.62,0-4.553,0.26-5.811,0.786
	c-1.247,0.526-2.166,1.457-2.769,2.794l-5.441-0.429c0.496-1.33,1.31-2.413,2.441-3.229c1.131-0.822,2.778-1.457,4.923-1.899
	c2.145-0.441,4.627-0.665,7.459-0.665c2.81,0,5.082,0.194,6.836,0.569c1.754,0.381,3.043,0.852,3.878,1.427
	c0.824,0.575,1.395,1.294,1.732,2.171c0.18,0.544,0.275,1.524,0.275,2.939v4.251c0,2.969,0.116,4.843,0.36,5.623
	c0.232,0.786,0.707,1.542,1.405,2.261h-5.822C197.605,138.523,197.225,137.75,197.067,136.86L197.067,136.86z M196.601,129.738
	c-2.029,0.478-5.06,0.877-9.097,1.21c-2.293,0.187-3.92,0.399-4.86,0.635c-0.951,0.236-1.691,0.58-2.198,1.04
	c-0.518,0.454-0.781,0.956-0.781,1.512c0,0.853,0.57,1.56,1.69,2.128c1.12,0.563,2.769,0.847,4.934,0.847
	c2.145,0,4.057-0.266,5.727-0.804c1.668-0.538,2.905-1.276,3.687-2.207c0.602-0.72,0.898-1.783,0.898-3.186V129.738z"/>
</svg>
