<?xml version="1.0" encoding="utf-8"?>
<!-- Generator: Adobe Illustrator 17.0.0, SVG Export Plug-In . SVG Version: 6.00 Build 0)  -->
<!DOCTYPE svg PUBLIC "-//W3C//DTD SVG 1.1//EN" "http://www.w3.org/Graphics/SVG/1.1/DTD/svg11.dtd">
<svg version="1.1" id="Layer_1" xmlns="http://www.w3.org/2000/svg" xmlns:xlink="http://www.w3.org/1999/xlink" x="0px" y="0px"
	 width="657px" height="110.52px" viewBox="121.5 394.74 657 110.52" enable-background="new 121.5 394.74 657 110.52"
	 xml:space="preserve">
<g id="XMLID_35_">
</g>
<g>
	<path fill="#231F20" d="M151.2,397.62h-29.7v104.04h29.7c15.66,0,27.18-3.78,37.08-12.06c11.88-9.9,18.9-24.66,18.9-39.96
		C207,419.04,184.14,397.62,151.2,397.62z M174.96,475.74c-6.3,5.76-14.58,8.28-27.72,8.28h-5.4v-68.76h5.4
		c13.14,0,21.06,2.34,27.72,8.46c7.02,6.3,11.16,15.84,11.16,25.92C186.12,459.54,181.98,469.44,174.96,475.74z"/>
	<rect id="XMLID_422_" x="216.36" y="397.62" fill="#231F20" width="20.34" height="104.04"/>
	<path id="XMLID_421_" fill="#231F20" d="M286.2,437.58c-12.24-4.5-15.66-7.56-15.66-13.14c0-6.48,6.3-11.52,15.12-11.52
		c6.12,0,10.98,2.52,16.38,8.46l10.62-13.86c-8.64-7.56-19.08-11.52-30.6-11.52c-18.36,0-32.4,12.78-32.4,29.7
		c0,14.4,6.48,21.6,25.56,28.44c7.92,2.88,12.06,4.68,14.04,5.94c4.14,2.7,6.12,6.48,6.12,10.8c0,8.46-6.66,14.58-15.66,14.58
		c-9.72,0-17.46-4.86-22.14-13.86l-13.14,12.6c9.36,13.68,20.52,19.8,36,19.8c21.06,0,35.82-14.04,35.82-34.2
		C316.26,453.42,309.42,446.04,286.2,437.58z"/>
	<path id="XMLID_420_" fill="#231F20" d="M322.56,449.64c0,30.6,23.94,54.18,54.9,54.18c8.64,0,16.2-1.8,25.38-6.12v-23.94
		c-8.1,8.1-15.3,11.34-24.48,11.34c-20.34,0-34.92-14.76-34.92-35.82c0-19.98,14.94-35.64,34.02-35.64c9.72,0,16.92,3.42,25.38,11.7
		V401.4c-8.82-4.5-16.2-6.3-25.02-6.3C347.22,395.28,322.56,419.4,322.56,449.64z"/>
	<polygon id="XMLID_419_" fill="#231F20" points="563.58,467.46 535.86,397.62 513.72,397.62 558,504.36 568.8,504.36 613.8,397.62 
		591.84,397.62 	"/>
	<polygon id="XMLID_418_" fill="#231F20" points="622.98,501.66 680.4,501.66 680.4,484.02 643.14,484.02 643.14,455.94 
		678.96,455.94 678.96,438.3 643.14,438.3 643.14,415.26 680.4,415.26 680.4,397.62 622.98,397.62 	"/>
	<path fill="#231F20" d="M760.68,428.4c0-19.44-13.32-30.78-36.72-30.78H693.9v104.04h20.34V459.9h2.7l28.08,41.76h25.02
		l-32.76-43.74C752.22,454.68,760.68,444.24,760.68,428.4z M720,445.5h-5.94V414h6.3c12.6,0,19.44,5.22,19.44,15.48
		C739.8,439.92,732.96,445.5,720,445.5z"/>
	
		<linearGradient id="XMLID_2_" gradientUnits="userSpaceOnUse" x1="194.1552" y1="644.8554" x2="172.8808" y2="611.546" gradientTransform="matrix(1.8 0 0 1.8 143.6 -666.4)">
		<stop  offset="0" style="stop-color:#F89F20"/>
		<stop  offset="0.2502" style="stop-color:#F79A20"/>
		<stop  offset="0.5331" style="stop-color:#F68D20"/>
		<stop  offset="0.6196" style="stop-color:#F58720"/>
		<stop  offset="0.7232" style="stop-color:#F48120"/>
		<stop  offset="1" style="stop-color:#F37521"/>
	</linearGradient>
	<circle id="XMLID_415_" fill="url(#XMLID_2_)" cx="464.76" cy="450" r="55.26"/>
	
		<linearGradient id="XMLID_3_" gradientUnits="userSpaceOnUse" x1="190.7928" y1="644.401" x2="159.6995" y2="583.6276" gradientTransform="matrix(1.8 0 0 1.8 143.6 -666.4)">
		<stop  offset="0" style="stop-color:#F58720"/>
		<stop  offset="0.3587" style="stop-color:#E16F27"/>
		<stop  offset="0.703" style="stop-color:#D4602C"/>
		<stop  offset="0.9816" style="stop-color:#D05B2E"/>
	</linearGradient>
	<circle id="XMLID_414_" opacity="0.65" fill="url(#XMLID_3_)" enable-background="new    " cx="464.76" cy="450" r="55.26"/>
	<g id="XMLID_430_">
		<path fill="#231F20" d="M773.64,401.58c0-1.8-1.26-2.88-3.42-2.88h-2.88v9.18h2.16v-3.6l2.52,3.6h2.7l-3.06-3.78
			C772.92,403.74,773.64,402.84,773.64,401.58z M769.86,402.84h-0.36v-2.34h0.36c1.08,0,1.62,0.36,1.62,1.26
			C771.48,402.48,770.94,402.84,769.86,402.84z"/>
		<path fill="#231F20" d="M770.58,395.28c-4.5,0-7.92,3.6-7.92,7.92c0,4.5,3.6,7.92,7.92,7.92c4.32,0,7.92-3.6,7.92-7.92
			S774.9,395.28,770.58,395.28z M770.58,409.86c-3.42,0-6.3-2.88-6.3-6.48s2.88-6.48,6.3-6.48s6.3,3.06,6.3,6.48
			C776.88,406.98,774,409.86,770.58,409.86z"/>
	</g>
</g>
</svg>
