<?xml version="1.0" encoding="utf-8"?>
<!-- Generator: Adobe Illustrator 17.0.0, SVG Export Plug-In . SVG Version: 6.00 Build 0)  -->
<!DOCTYPE svg PUBLIC "-//W3C//DTD SVG 1.1//EN" "http://www.w3.org/Graphics/SVG/1.1/DTD/svg11.dtd">
<svg version="1.1"
	 id="svg2" xmlns:dc="http://purl.org/dc/elements/1.1/" xmlns:cc="http://creativecommons.org/ns#" xmlns:rdf="http://www.w3.org/1999/02/22-rdf-syntax-ns#" xmlns:svg="http://www.w3.org/2000/svg" xmlns:sodipodi="http://sodipodi.sourceforge.net/DTD/sodipodi-0.dtd" xmlns:inkscape="http://www.inkscape.org/namespaces/inkscape" sodipodi:docname="elo-logo.svg" inkscape:version="0.92.2 (5c3e80d, 2017-08-06)"
	 xmlns="http://www.w3.org/2000/svg" xmlns:xlink="http://www.w3.org/1999/xlink" x="0px" y="0px" width="184.732px"
	 height="70.793px" viewBox="284.174 21.704 184.732 70.793" enable-background="new 284.174 21.704 184.732 70.793"
	 xml:space="preserve">
<g id="g10" transform="matrix(1.3333333,0,0,-1.3333333,-148.21892,501.73283)">
	<g id="g14">
		<g>
			<g id="g16">
				<g id="g56" transform="translate(345.8945,348.2915)">
					<path id="path58" inkscape:connector-curvature="0" fill="#FBC707" d="M0,0c1.557,0.521,3.221,0.801,4.955,0.801
						c7.553,0,13.859-5.366,15.305-12.501l10.709,2.187C28.512,2.605,17.799,11.73,4.955,11.73c-2.947,0-5.775-0.479-8.42-1.364L0,0
						z"/>
				</g>
				<g id="g60" transform="translate(333.2559,313.5845)">
					<path id="path62" inkscape:connector-curvature="0" fill="#38A7E4" d="M0,0l7.244,8.188c-3.234,2.865-5.273,7.044-5.273,11.7
						c0,4.654,2.037,8.831,5.267,11.693l-7.244,8.189c-5.492-4.864-8.955-11.969-8.955-19.882C-8.961,11.971-5.494,4.864,0,0"/>
				</g>
				<g id="g64" transform="translate(366.1504,330.3374)">
					<path id="path66" inkscape:connector-curvature="0" fill="#EF3120" d="M0,0c-1.449-7.127-7.75-12.485-15.301-12.485
						c-1.736,0-3.404,0.28-4.959,0.804l-3.47-10.368c2.646-0.886,5.48-1.362,8.429-1.362c12.832,0,23.543,9.106,26.01,21.218L0,0z"
						/>
				</g>
				<g id="g68" transform="translate(407.6289,324.6582)">
					<path id="path70" inkscape:connector-curvature="0" fill="#FFFFFF" d="M0,0c-0.004-0.005-0.006-0.007-0.008-0.012l-0.306,0.208
						c-0.877-1.425-2.243-2.577-3.971-3.324c-3.287-1.43-6.332-1.063-8.518,0.855l-0.201-0.304l-0.004,0.005l-3.732-5.579
						c0.926-0.642,1.92-1.189,2.965-1.624c4.119-1.71,8.334-1.63,12.486,0.175C1.713-8.301,4.07-6.315,5.682-3.799L0,0z
						 M-11.643,13.763c-3.466-1.491-5.257-4.745-4.888-8.563l14.697,6.327C-4.359,14.499-7.65,15.482-11.643,13.763 M-21.4-3.231
						c-0.352,0.568-0.829,1.479-1.116,2.147c-1.695,3.937-1.777,8.011-0.345,11.922c1.574,4.291,4.584,7.574,8.468,9.246
						c4.889,2.104,10.293,1.687,14.977-1.09c2.973-1.706,5.082-4.341,6.684-8.067C7.473,10.45,7.65,9.938,7.826,9.506L-21.4-3.231z"
						/>
				</g>
				<g id="g72" transform="translate(425.6719,352.9595)">
					<path id="path74" inkscape:connector-curvature="0" fill="#FFFFFF" d="M0,0v-31.018l4.822-1.953l-2.74-6.392l-5.322,2.212
						c-1.196,0.519-2.008,1.311-2.625,2.205c-0.586,0.911-1.028,2.161-1.028,3.843V0H0z"/>
				</g>
				<g id="g76" transform="translate(438.1641,329.8447)">
					<path id="path78" inkscape:connector-curvature="0" fill="#FFFFFF" d="M0,0c0.002,2.64,1.17,5.009,3.014,6.619l-4.948,5.515
						C-5.289,9.167-7.4,4.836-7.406,0.007c-0.006-4.834,2.103-9.17,5.459-12.144l4.939,5.523C1.158-5-0.002-2.635,0,0"/>
				</g>
				<g id="g80" transform="translate(446.9531,321.0415)">
					<path id="path82" inkscape:connector-curvature="0" fill="#FFFFFF" d="M0,0c-0.975,0.002-1.91,0.164-2.787,0.456L-5.15-6.572
						c1.615-0.542,3.347-0.836,5.144-0.838C7.826-7.417,14.369-1.859,15.885,5.53L8.621,7.011C7.797,3.007,4.248-0.004,0,0"/>
				</g>
				<g id="g84" transform="translate(446.9746,346.042)">
					<path id="path86" inkscape:connector-curvature="0" fill="#FFFFFF" d="M0,0c-1.797,0.002-3.523-0.29-5.139-0.827l2.344-7.032
						C-1.918-7.57-0.98-7.408-0.006-7.408c4.258-0.005,7.807-3.033,8.611-7.049l7.264,1.475C14.377-5.584,7.842-0.005,0,0"/>
				</g>
			</g>
		</g>
	</g>
</g>
</svg>
