<?xml version="1.0" encoding="utf-8"?>
<!-- Generator: Adobe Illustrator 17.0.0, SVG Export Plug-In . SVG Version: 6.00 Build 0)  -->
<!DOCTYPE svg PUBLIC "-//W3C//DTD SVG 1.1//EN" "http://www.w3.org/Graphics/SVG/1.1/DTD/svg11.dtd">
<svg version="1.1"
	 id="svg2985" xmlns:dc="http://purl.org/dc/elements/1.1/" xmlns:cc="http://creativecommons.org/ns#" xmlns:rdf="http://www.w3.org/1999/02/22-rdf-syntax-ns#" xmlns:svg="http://www.w3.org/2000/svg" xmlns:sodipodi="http://sodipodi.sourceforge.net/DTD/sodipodi-0.dtd" xmlns:inkscape="http://www.inkscape.org/namespaces/inkscape" sodipodi:docname="cartão-hipercard-fatura.gif" inkscape:version="0.48.1 "
	 xmlns="http://www.w3.org/2000/svg" xmlns:xlink="http://www.w3.org/1999/xlink" x="0px" y="0px" width="1633.998px"
	 height="391px" viewBox="184.501 272.333 1633.998 391" enable-background="new 184.501 272.333 1633.998 391"
	 xml:space="preserve">
<sodipodi:namedview  inkscape:cy="444.5" inkscape:cx="1000" inkscape:zoom="0.24" showgrid="false" guidetolerance="10" gridtolerance="10" objecttolerance="10" borderopacity="1" pagecolor="#ffffff" bordercolor="#666666" id="namedview2987" inkscape:current-layer="svg2985" inkscape:window-maximized="1" inkscape:window-y="-8" inkscape:window-x="-8" inkscape:window-height="706" inkscape:window-width="1360" inkscape:pageshadow="2" inkscape:pageopacity="0">
	</sodipodi:namedview>
<defs>
	<filter id="Adobe_OpacityMaskFilter" filterUnits="userSpaceOnUse" x="184.501" y="272.333" width="1633.998" height="391">
		<feFlood  style="flood-color:white;flood-opacity:1" result="back"/>
		<feBlend  in="SourceGraphic" in2="back" mode="normal"/>
	</filter>
</defs>
<mask maskUnits="userSpaceOnUse" x="184.501" y="272.333" width="1633.998" height="391" id="path2997_1_">
	<g filter="url(#Adobe_OpacityMaskFilter)">
	</g>
</mask>
<path id="path2997" inkscape:connector-curvature="0" opacity="0.7" mask="url(#path2997_1_)" fill="#F9F7F7" d="M542.785,663.333
	h21.501l0.607-1.582c0.334-0.87,0.607-2.915,0.607-4.545c0-1.63,0.709-7.556,1.575-13.168c0.866-5.613,2.899-18.53,4.517-28.705
	c1.618-10.175,4.042-25.475,5.385-34s2.983-19.438,3.644-24.25s1.467-8.75,1.792-8.75s1.715,2.127,3.089,4.726l2.498,4.726
	l5.544,5.585l5.544,5.585l6.824,2.732l6.824,2.732l8.133,1.054l8.133,1.054l10.323-0.633l10.323-0.633l11.177-2.893L672,569.476
	l6-2.739c3.3-1.506,9.15-4.79,13-7.298l7-4.559l6.527-6.523c3.59-3.588,8.652-9.341,11.25-12.784s4.723-6.513,4.723-6.82
	c0-0.307,1.276-2.44,2.836-4.739c1.56-2.299,4.753-8.68,7.095-14.18c2.342-5.5,6.002-15.4,8.134-22l3.876-12l2.003-10.395
	c1.102-5.717,2.519-15.167,3.15-21l1.147-10.605l-0.662-9l-0.662-9l-2.087-9l-2.087-9l-3.378-6.738l-3.378-6.738l-6.525-6.917
	l-6.525-6.917l-7.719-3.99l-7.719-3.99l-8.5-2.035l-8.5-2.035l-8.5-0.624l-8.5-0.624l-9.469,1.088l-9.469,1.088l-7.728,1.973
	l-7.728,1.973l-6.714,3.108c-3.693,1.709-9.066,4.612-11.94,6.451s-5.84,3.954-6.589,4.701c-0.75,0.747-2.544,2.131-3.988,3.075
	l-2.625,1.717l1.836-8.783c1.01-4.831,1.854-9.346,1.875-10.033l0.039-1.25h-18.333h-18.333l-3.215,20.25
	c-1.768,11.138-4.56,28.35-6.204,38.25s-4.123,24.75-5.509,33c-1.386,8.25-3.858,22.875-5.494,32.5
	c-1.636,9.625-4.339,24.925-6.007,34c-1.669,9.075-4.113,22.35-5.432,29.5s-3.802,20.65-5.517,30s-4.472,24.2-6.125,33
	s-4.345,22.75-5.98,31s-3.22,16.013-3.52,17.25l-0.547,2.25H542.785L542.785,663.333z M635.349,547.715L627,548.217l-5.457-0.963
	l-5.457-0.963l-5.543-2.531L605,541.229l-3.872-3.698l-3.872-3.698l-2.235-5c-1.229-2.75-2.808-7.422-3.509-10.381l-1.274-5.381
	l0.51-8.619l0.51-8.619l2.577-13.5c1.417-7.425,3.962-21.375,5.655-31s4.256-23.728,5.696-31.34l2.618-13.84l5.732-4.771
	c3.153-2.624,8.147-6.14,11.099-7.815l5.366-3.044l7-2.167l7-2.167l9-0.528l9-0.528l7.328,1.562l7.328,1.562l5.172,2.382
	l5.172,2.382l4.337,4.36l4.337,4.36l2.34,4.617c1.287,2.539,3.094,7.51,4.016,11.046l1.677,6.429l-0.514,19l-0.514,19l-2.568,11.23
	c-1.413,6.177-4.101,15.627-5.975,21l-3.407,9.77l-4.173,7.908c-2.295,4.35-5.834,10.228-7.864,13.062
	c-2.03,2.834-5.267,6.506-7.192,8.159c-1.925,1.653-5.149,4.237-7.164,5.741l-3.664,2.735l-8.487,2.887l-8.487,2.887
	L635.349,547.715L635.349,547.715z M843,575.206l11,0.126l11-1.003c6.05-0.552,15.95-1.701,22-2.553
	c6.05-0.852,16.501-2.76,23.225-4.239l12.225-2.69l0.609-4.506c0.335-2.479,1.708-9.857,3.051-16.397l2.442-11.89l-0.539-0.539
	l-0.539-0.539l-3.737,1.805c-2.056,0.993-8.458,3.361-14.228,5.262l-10.49,3.457l-11.01,2.133L877,545.765l-17.5,0.034l-17.5,0.034
	l-6-1.916c-3.3-1.054-8.154-2.982-10.786-4.285l-4.786-2.369l-3.95-3.568l-3.95-3.569l-3.082-5.387l-3.082-5.387l-1.932-6.757
	l-1.932-6.757l-0.014-12.503l-0.014-12.503l1.715-11.154l1.715-11.154l15.048-0.703L836,457.119l55.626,0.357l55.626,0.357
	l1.68-7.125c0.924-3.919,2.336-12.019,3.138-18l1.459-10.875l0.031-9.148l0.031-9.148l-1.584-6.829l-1.584-6.829l-2.619-4.522
	c-1.44-2.487-3.978-6.092-5.64-8.01c-1.662-1.918-4.628-4.623-6.593-6.01s-5.822-3.719-8.572-5.181l-5-2.658l-8.736-2.105
	l-8.736-2.105l-10.764-1.029L883,357.227l-10,0.651l-10,0.651l-12,2.304l-12,2.304l-7.5,2.999c-4.125,1.649-10.425,4.657-14,6.684
	s-8.525,5.326-11,7.331c-2.475,2.005-6.76,5.904-9.523,8.664c-2.762,2.76-6.849,7.718-9.081,11.018s-5.653,9.15-7.603,13
	c-1.95,3.85-4.491,9.25-5.646,12s-3.255,8.375-4.666,12.5s-3.629,12-4.928,17.5s-3.081,14.554-3.958,20.119l-1.595,10.12
	l0.015,14.881l0.015,14.881l1.52,6.5c0.836,3.575,2.434,8.975,3.552,12c1.118,3.025,3.184,7.525,4.592,10s4.416,6.46,6.683,8.855
	s6.373,6.03,9.123,8.078s7.646,4.926,10.879,6.398l5.879,2.676l8.197,1.982c4.509,1.09,11.313,2.381,15.121,2.87
	C828.885,574.681,836.95,575.137,843,575.206L843,575.206z M861.836,434.333c-27.685,0-50.336-0.198-50.336-0.44
	s1.181-3.73,2.625-7.75s3.979-10.004,5.635-13.298l3.01-5.988l6.615-6.579l6.615-6.579l6.5-3.108c3.575-1.71,8.3-3.571,10.5-4.136
	s8.5-1.316,14-1.667l10-0.639l7.679,0.987l7.679,0.987l5.581,2.555l5.581,2.555l3.061,3.301c1.684,1.815,3.69,4.489,4.459,5.941
	l1.398,2.64l0.923,5.86l0.923,5.86l-1.056,9.75l-1.056,9.75L861.836,434.333L861.836,434.333z M1161.006,575.211l11.006,0.122
	l12.494-1.481c6.872-0.814,16.019-2.164,20.327-2.999c4.308-0.835,11.283-2.493,15.5-3.684c4.217-1.191,8.032-2.479,8.478-2.862
	c0.446-0.383,1.637-4.921,2.648-10.085c1.01-5.164,2.283-12.089,2.828-15.389c0.545-3.3,0.827-6.177,0.626-6.393
	c-0.201-0.216-0.938,0.063-1.639,0.62s-5.607,2.621-10.903,4.588l-9.629,3.576l-13.712,2.657l-13.712,2.657l-11.658-0.398
	L1162,545.743l-6.622-2.297l-6.622-2.297l-5.117-4.476l-5.117-4.476l-3.394-6.182l-3.394-6.182l-1.617-8.27l-1.617-8.27l0.01-10.73
	l0.01-10.73l1.964-13l1.965-13l2.079-7c1.143-3.85,2.437-8.35,2.875-10c0.438-1.65,2.272-6.375,4.075-10.5s5.021-10.5,7.15-14.168
	l3.871-6.668l4.754-4.926l4.754-4.926l5.035-3.123l5.035-3.123l6.465-1.991c3.556-1.095,9.84-2.517,13.965-3.16l7.5-1.169l11,0.552
	l11,0.552l13,2.602l13,2.602l5.287,1.972c2.908,1.085,5.415,1.972,5.57,1.972s0.853-3.712,1.55-8.25s1.938-12.003,2.757-16.589
	c0.819-4.587,1.292-8.537,1.051-8.778c-0.241-0.241-4.149-0.862-8.684-1.379c-4.535-0.517-16.86-1.435-27.389-2.041l-19.144-1.1
	l-13.5,1.036l-13.5,1.036l-10,2.101l-10,2.102l-6.44,2.576c-3.542,1.417-8.73,3.973-11.529,5.681
	c-2.799,1.708-6.362,4.005-7.917,5.105s-6.275,5.392-10.488,9.537l-7.66,7.537l-4.276,6.264c-2.351,3.445-6.419,10.628-9.04,15.963
	l-4.764,9.699l-3.651,10.5c-2.008,5.775-4.812,15.225-6.231,21l-2.58,10.5l-0.936,9.5l-0.936,9.5l0.01,12.5l0.01,12.5l0.944,7.272
	l0.944,7.272l2.995,7.48l2.995,7.48l3.459,5.408l3.459,5.408l5.501,5.414l5.501,5.414l5.819,3.075l5.819,3.075l7.645,2.123
	c4.205,1.168,10.28,2.508,13.5,2.979c3.22,0.47,10.807,0.91,16.861,0.977L1161.006,575.211z M1325.5,574.842l13.5-0.387l8.5-2.175
	l8.5-2.176l5.5-2.6c3.025-1.43,7.975-4.253,11-6.273s7.707-5.861,10.405-8.535c2.698-2.674,6.698-7.236,8.89-10.138
	c2.192-2.902,4.117-5.144,4.279-4.983c0.161,0.161-0.343,4.786-1.121,10.276c-0.778,5.491-1.423,12.796-1.434,16.233l-0.019,6.25
	h18.353h18.353l0.561-14.25l0.561-14.25l2.619-18.5c1.44-10.175,3.767-25.25,5.17-33.5s3.842-22.2,5.419-31s4.077-22.525,5.554-30.5
	l2.686-14.5l0.09-12.525l0.09-12.525l-2.832-5.789l-2.832-5.789l-3.84-3.687l-3.84-3.687l-6.305-3.195l-6.305-3.195l-9.397-2.09
	l-9.397-2.09l-12.938-0.984l-12.938-0.985l-16.666,1.031c-9.166,0.567-22.065,1.687-28.665,2.488l-12,1.457l-8.178,0.031
	l-8.178,0.031l-1.19,5.75c-0.655,3.163-2.473,10.676-4.042,16.697c-1.568,6.021-2.706,11.092-2.528,11.27s4.552-0.815,9.72-2.206
	c5.168-1.391,16.147-3.679,24.397-5.084l15-2.554l13.5-0.556l13.5-0.556l8.696,1.524l8.696,1.524l5.804,2.865l5.804,2.865
	l3.25,4.844l3.25,4.844l-0.046,7.637l-0.046,7.637l-1.723,8.381l-1.723,8.381l-35.981,0.13l-35.981,0.13l-11.776,3.229
	c-6.477,1.776-13.649,4.134-15.938,5.24c-2.289,1.106-4.578,2.011-5.088,2.011s-4.362,2.137-8.562,4.748l-7.636,4.748l-6.014,6.002
	c-3.308,3.301-7.533,8.252-9.391,11.002c-1.857,2.75-4.875,8.495-6.705,12.766l-3.329,7.766l-1.528,8.734l-1.528,8.734v9.162v9.162
	l1.459,7.628l1.46,7.628l2.708,4.975c1.489,2.736,4.223,6.745,6.074,8.907l3.366,3.932l5.981,3.633l5.981,3.633l6.846,1.937
	c3.766,1.066,9.496,2.356,12.736,2.867l5.889,0.929l13.5-0.387L1325.5,574.842z M1338,546.88l-8,0.417l-5.298-1.349
	c-2.914-0.742-7.336-2.397-9.827-3.678l-4.528-2.329l-2.471-2.937c-1.359-1.615-3.436-4.789-4.614-7.054l-2.143-4.116l-0.42-9.613
	l-0.42-9.613l1.695-5.831c0.932-3.207,3.12-8.772,4.861-12.367l3.166-6.536l6.062-6.02l6.062-6.02l6.438-3.1l6.438-3.1l8-1.9l8-1.9
	h25h25l1.582,0.654l1.582,0.654l-1.331,7.846c-0.732,4.315-2.478,12.121-3.88,17.346s-3.877,12.906-5.5,17.069
	c-1.623,4.163-2.951,7.843-2.951,8.178c0,0.335-1.643,3.369-3.652,6.74l-3.652,6.131l-5.997,5.941
	c-3.298,3.268-6.36,5.941-6.804,5.941s-2.465,1.125-4.493,2.501l-3.686,2.501l-8.109,2.563l-8.109,2.563L1338,546.88L1338,546.88z
	 M1663.5,575.199l9.5,0.12l9-1.461c4.95-0.803,11.25-2.098,14-2.876c2.75-0.778,7.7-2.799,11-4.489l6-3.074l5.162-4.543l5.162-4.543
	l5.436-7.25c2.99-3.987,5.697-7.925,6.017-8.75l0.58-1.5l-0.505,5c-0.278,2.75-0.9,7.25-1.384,10
	c-0.483,2.75-1.176,8.037-1.54,11.75l-0.661,6.75h19.616h19.616v-6.75v-6.75l2.989-25.5c1.644-14.025,4.074-32.7,5.402-41.5
	s3.375-21.4,4.552-28c1.177-6.6,3.26-18.525,4.63-26.5s3.845-21.925,5.5-31c1.655-9.075,4.303-23.475,5.885-32
	c1.582-8.525,4.041-21.8,5.464-29.5c1.423-7.7,3.973-21.2,5.666-30c1.693-8.8,4.167-21.175,5.497-27.5
	c1.33-6.325,2.416-11.837,2.414-12.25v-0.75h-21.402h-21.402l-0.632,6.25c-0.348,3.438-1.986,14.8-3.641,25.25
	c-1.655,10.45-4.353,27.1-5.995,37c-1.642,9.9-3.226,19.5-3.518,21.333l-0.532,3.334l-1.689-0.718
	c-0.929-0.395-5.964-1.792-11.189-3.104l-9.5-2.385l-13-1.012l-13-1.013l-11,1.025l-11,1.025l-10,2.528l-10,2.528l-9.5,4.634
	l-9.5,4.634l-7,5.182l-7,5.182l-6.045,6.482c-3.325,3.565-8.128,9.461-10.674,13.103l-4.629,6.622l-5.436,11.311
	c-2.99,6.221-6.628,14.461-8.085,18.311c-1.457,3.85-4.027,12.384-5.71,18.965l-3.061,11.965l-1.508,15.535l-1.508,15.535
	l1.132,12.5l1.132,12.5l1.339,4.5c0.736,2.475,2.289,6.885,3.45,9.799l2.111,5.299l3.85,5.211l3.85,5.211l4.396,3.6l4.396,3.6
	l6,2.979c3.3,1.638,8.836,3.756,12.302,4.706s9.091,2.09,12.5,2.533s10.473,0.861,15.698,0.927L1663.5,575.199z M1680.551,546.828
	l-7.551,0.401l-5.096-0.917c-2.803-0.505-7.288-1.857-9.967-3.005l-4.871-2.088l-4.099-3.359l-4.099-3.359l-3.046-5.834
	l-3.046-5.834l-1.388-6.5l-1.388-6.5l0.118-13l0.118-13l1.612-11.5l1.612-11.5l2.505-8c1.378-4.4,2.512-8.551,2.52-9.225
	c0.01-0.674,1.369-4.274,3.023-8s4.419-9.475,6.143-12.775c1.724-3.3,4.947-8.444,7.161-11.432c2.215-2.988,6.16-7.488,8.767-10
	s6.755-5.807,9.217-7.323l4.476-2.755l7.863-2.721l7.863-2.721l16.5-0.01h16.5l9.5,2.636c5.225,1.449,10.773,3.131,12.328,3.736
	l2.828,1.1l-0.552,2.745c-0.304,1.51-1.492,8.145-2.641,14.745s-3.412,19.2-5.03,28s-4.104,22.075-5.524,29.5
	c-1.42,7.425-3.478,16.875-4.572,21c-1.094,4.125-2.638,9.839-3.43,12.697c-0.792,2.858-2.68,7.808-4.194,11
	c-1.514,3.192-4.163,7.828-5.887,10.303c-1.724,2.475-4.64,5.904-6.48,7.619c-1.84,1.715-5.821,4.764-8.845,6.774l-5.5,3.655
	l-7.949,2.523l-7.949,2.523L1680.551,546.828L1680.551,546.828z M208.797,570.333h24.297l1.743-10.75
	c0.959-5.912,2.831-17.275,4.161-25.25s3.805-22.825,5.501-33c1.695-10.175,4.237-25.25,5.648-33.5s3.653-21.048,4.982-28.439
	c1.329-7.392,2.668-13.692,2.977-14l0.56-0.561H324h65.333l0.725,0.725l0.725,0.725l-1.133,5.775
	c-0.623,3.176-2.466,12.975-4.096,21.775c-1.63,8.8-4.369,23.65-6.088,33s-4.204,22.625-5.523,29.5
	c-1.319,6.875-3.987,21.275-5.93,32c-1.943,10.725-3.529,20.063-3.524,20.75l0.01,1.25h24.397h24.397l1.079-6.25
	c0.594-3.438,1.549-9.625,2.123-13.75c0.574-4.125,1.957-12.9,3.074-19.5c1.117-6.6,3.349-19.65,4.959-29s4.306-25.325,5.991-35.5
	c1.684-10.175,4.183-25.025,5.553-33s3.81-21.475,5.424-30s4.3-22.925,5.971-32c1.671-9.075,4.174-22.8,5.563-30.5
	c1.389-7.7,3.921-21.65,5.627-31s3.86-20.263,4.787-24.25l1.685-7.25h-24.703h-24.702l-0.672,4.75
	c-0.37,2.612-1.563,9.925-2.652,16.25c-1.089,6.325-3.07,17.575-4.402,25c-1.332,7.425-3.767,21.6-5.41,31.5
	c-1.643,9.9-3.738,23.005-4.654,29.123l-1.666,11.123l-36.262,0.734l-36.262,0.734l-30.373-0.721
	c-16.705-0.396-30.466-0.799-30.579-0.896c-0.113-0.096,0.456-3.982,1.264-8.636c0.809-4.654,2.338-12.736,3.399-17.961
	s3.073-15.575,4.47-23c1.397-7.425,2.98-16.65,3.517-20.5s1.663-10.263,2.502-14.25c0.839-3.987,2.431-12.387,3.538-18.665
	c1.107-6.278,2.286-12.128,2.621-13l0.608-1.585h-24.503h-24.503l-1.569,8.75c-0.863,4.813-2.014,11.675-2.558,15.25
	c-0.544,3.575-2.369,15.05-4.056,25.5c-1.687,10.45-4.178,25.975-5.535,34.5c-1.357,8.525-3.828,24.05-5.492,34.5
	s-4.408,26.65-6.099,36s-4.139,22.625-5.44,29.5c-1.301,6.875-3.781,19.925-5.511,29c-1.73,9.075-4.253,21.9-5.607,28.5
	c-1.354,6.6-2.852,14.25-3.327,17c-0.476,2.75-2.023,10.682-3.44,17.626c-1.416,6.944-2.575,13.357-2.575,14.25v1.624
	L208.797,570.333L208.797,570.333z M477.776,570.333h21.51l0.607-1.582c0.334-0.87,0.607-3.152,0.607-5.071
	c0-1.919,1.353-11.895,3.006-22.168c1.653-10.273,4.385-27.004,6.07-37.179c1.685-10.175,4.174-25.025,5.531-33
	s3.769-21.25,5.362-29.5c1.592-8.25,4.036-21.075,5.432-28.5c1.395-7.425,4.139-21.551,6.097-31.392s3.805-18.287,4.103-18.77
	l0.543-0.878l-21.752,0.27l-21.752,0.27l-1.812,13c-0.996,7.15-3.175,21.325-4.841,31.5s-4.186,25.7-5.6,34.5
	s-3.88,22.975-5.48,31.5c-1.6,8.525-4.052,21.575-5.449,29s-3.903,20.475-5.569,29s-3.903,19.775-4.969,25
	c-1.067,5.225-2.212,10.513-2.546,11.75l-0.606,2.25H477.776L477.776,570.333z M980.85,570.333h21.35l0.641-9.034
	c0.353-4.969,1.561-14.981,2.685-22.25c1.124-7.269,3.425-21.766,5.114-32.216c1.689-10.45,4.828-27.844,6.975-38.653
	c2.147-10.809,4.575-21.553,5.394-23.876c0.819-2.323,1.49-4.839,1.49-5.593c0-0.754,1.605-4.859,3.567-9.124
	c1.962-4.265,5.618-10.795,8.125-14.512l4.558-6.758l6.101-5.649l6.101-5.649l7.524-3.593l7.524-3.593l11.5,0.06l11.5,0.06
	l5.654,1.69c3.11,0.929,5.922,1.69,6.25,1.69c0.328,0,0.596-1.063,0.596-2.362c0-1.299,1.125-7.886,2.5-14.638
	c1.375-6.751,2.5-12.56,2.5-12.908c0-0.348-3.262-1.625-7.25-2.837s-9.5-2.483-12.25-2.822l-5-0.617l-6.5,1.15
	c-3.575,0.632-8.891,2.028-11.813,3.102c-2.922,1.074-7.747,3.509-10.722,5.412c-2.975,1.903-7.602,5.611-10.283,8.241
	s-7.19,7.931-10.021,11.781s-5.791,7.9-6.578,9l-1.432,2l0.869-4c0.478-2.2,1.81-9.4,2.959-16c1.15-6.6,2.329-12.788,2.622-13.75
	l0.532-1.75h-19.067H995.5v2.41c0,1.326-1.125,9.313-2.501,17.75c-1.375,8.437-3.644,22.539-5.04,31.34
	c-1.397,8.8-3.876,24.1-5.509,34s-4.113,24.075-5.51,31.5s-3.879,20.475-5.515,29c-1.635,8.525-4.351,22.475-6.034,31
	c-1.683,8.525-3.698,18.593-4.476,22.373c-0.778,3.78-1.415,7.268-1.415,7.75v0.877L980.85,570.333L980.85,570.333z
	 M1487.67,570.333h21.83v-6.681v-6.681l2.516-16.569c1.384-9.113,3.666-23.544,5.073-32.069c1.406-8.525,3.159-19.325,3.895-24
	c0.736-4.675,2.687-14.8,4.335-22.5c1.648-7.7,3.707-16.025,4.575-18.5c0.868-2.475,1.585-5.072,1.593-5.77
	c0.01-0.699,1.869-5.192,4.135-9.985l4.121-8.715l5.436-7.223l5.436-7.223l5.95-4.473c3.272-2.46,8.534-5.724,11.693-7.254
	l5.743-2.782l12.5,0.086l12.5,0.086l4.921,1.58l4.921,1.58l0.829-0.513l0.829-0.513l0.042-3.191
	c0.023-1.755,1.093-8.285,2.379-14.512l2.337-11.321l-2.629-1.029c-1.446-0.566-4.879-1.738-7.629-2.604l-5-1.574l-9,0.023l-9,0.023
	l-7.335,2.581l-7.335,2.58l-5.507,3.321l-5.507,3.321l-7.16,7.5l-7.16,7.5l-3.847,5.818c-2.116,3.2-3.979,5.675-4.14,5.5
	c-0.161-0.175,0.989-6.843,2.556-14.818s2.868-15.513,2.891-16.75l0.043-2.25H1521h-18.5v0.637c0,0.35-0.922,6.763-2.05,14.25
	c-1.127,7.487-3.391,21.938-5.03,32.113c-1.639,10.175-4.328,26.6-5.976,36.5s-4.132,24.075-5.521,31.5s-3.854,20.475-5.48,29
	s-4.296,22.25-5.935,30.5s-3.81,19.162-4.824,24.25l-1.845,9.25L1487.67,570.333L1487.67,570.333z M520.072,326.311l6.072,0.022
	l4.826-1.645l4.826-1.645l4.271-4.333l4.271-4.333l2.25-5.773l2.25-5.773l0.08-8.5l0.08-8.5l-2-3.319l-2-3.319l-3.482-2.156
	l-3.482-2.156h-7.518l-7.518,0l-5.118,2.292l-5.118,2.292l-2.971,3.184l-2.971,3.184l-2.333,5.5l-2.333,5.5l-0.441,8.567
	l-0.441,8.567l2.172,4.258l2.172,4.258l4.191,1.903l4.191,1.903L520.072,326.311L520.072,326.311z"/>
</svg>
