<?xml version="1.0" encoding="utf-8"?>
<!-- Generator: Adobe Illustrator 17.0.0, SVG Export Plug-In . SVG Version: 6.00 Build 0)  -->
<!DOCTYPE svg PUBLIC "-//W3C//DTD SVG 1.1//EN" "http://www.w3.org/Graphics/SVG/1.1/DTD/svg11.dtd">
<svg version="1.1"
	 id="レイヤー_1" xmlns:dc="http://purl.org/dc/elements/1.1/" xmlns:cc="http://creativecommons.org/ns#" xmlns:rdf="http://www.w3.org/1999/02/22-rdf-syntax-ns#" xmlns:svg="http://www.w3.org/2000/svg" xmlns:sodipodi="http://sodipodi.sourceforge.net/DTD/sodipodi-0.dtd" xmlns:inkscape="http://www.inkscape.org/namespaces/inkscape" sodipodi:docname="jcb-cartoes-logo.svg" inkscape:version="0.92.2 (5c3e80d, 2017-08-06)"
	 xmlns="http://www.w3.org/2000/svg" xmlns:xlink="http://www.w3.org/1999/xlink" x="0px" y="0px" width="974.027px"
	 height="750.874px" viewBox="478.5 51.626 974.027 750.874" enable-background="new 478.5 51.626 974.027 750.874"
	 xml:space="preserve">
<rect x="478.5" y="51.626" fill="#FFFFFF" width="974.027" height="750.874"/>
<g id="g97">
	<g id="g65">
		
			<g id="g39" inkscape:export-ydpi="1232.2738" inkscape:export-filename="C:\Users\suitedoalex\sites\jcb-logo-1.png" inkscape:export-xdpi="1232.2738">
			
				<linearGradient id="path15_1_" gradientUnits="userSpaceOnUse" x1="51.213" y1="1034.572" x2="91.1622" y2="1034.572" gradientTransform="matrix(6.6758 0 0 -6.6758 790.6756 7373.6323)">
				<stop  offset="0" style="stop-color:#007940"/>
				<stop  offset="0.2285" style="stop-color:#00873F"/>
				<stop  offset="0.7433" style="stop-color:#40A737"/>
				<stop  offset="1" style="stop-color:#5CB531"/>
			</linearGradient>
			<path id="path15" fill="url(#path15_1_)" d="M1185.495,495.495h62.308c1.78,0,5.934-0.593,7.714-0.593
				c11.868-2.374,21.956-13.055,21.956-27.89c0-14.242-10.088-24.923-21.956-27.89c-1.78-0.593-5.341-0.593-7.714-0.593h-62.308
				V495.495z"/>
			
				<linearGradient id="path26_1_" gradientUnits="userSpaceOnUse" x1="51.2145" y1="1040.7499" x2="91.1256" y2="1040.7499" gradientTransform="matrix(6.6758 0 0 -6.6758 790.6756 7373.6323)">
				<stop  offset="0" style="stop-color:#007940"/>
				<stop  offset="0.2285" style="stop-color:#00873F"/>
				<stop  offset="0.7433" style="stop-color:#40A737"/>
				<stop  offset="1" style="stop-color:#5CB531"/>
			</linearGradient>
			<path id="path26" fill="url(#path26_1_)" d="M1240.681,102.066c-59.341,0-108,48.066-108,108V322.22h152.505
				c3.561,0,7.714,0,10.681,0.593c34.418,1.78,59.934,19.582,59.934,50.44c0,24.33-17.209,45.099-49.253,49.253v1.187
				c35.011,2.374,61.714,21.956,61.714,52.22c0,32.637-29.67,54-68.835,54h-167.341v219.56h158.44c59.341,0,108-48.066,108-108
				V102.066H1240.681z"/>
			
				<linearGradient id="path37_1_" gradientUnits="userSpaceOnUse" x1="51.213" y1="1047.5498" x2="91.1586" y2="1047.5498" gradientTransform="matrix(6.6758 0 0 -6.6758 790.6756 7373.6323)">
				<stop  offset="0" style="stop-color:#007940"/>
				<stop  offset="0.2285" style="stop-color:#00873F"/>
				<stop  offset="0.7433" style="stop-color:#40A737"/>
				<stop  offset="1" style="stop-color:#5CB531"/>
			</linearGradient>
			<path id="path37" fill="url(#path37_1_)" d="M1269.758,380.374c0-14.242-10.088-23.736-21.956-25.516
				c-1.187,0-4.154-0.593-5.934-0.593h-56.374v52.22h56.374c1.78,0,5.341,0,5.934-0.593
				C1259.67,404.11,1269.758,394.615,1269.758,380.374z"/>
		</g>
		
			<linearGradient id="path50_1_" gradientUnits="userSpaceOnUse" x1="-38.2119" y1="1040.7943" x2="2.3517" y2="1040.7943" gradientTransform="matrix(6.6758 0 0 -6.6758 790.6756 7373.6323)">
			<stop  offset="0" style="stop-color:#1F286F"/>
			<stop  offset="0.4751" style="stop-color:#004E94"/>
			<stop  offset="0.8261" style="stop-color:#0066B1"/>
			<stop  offset="1" style="stop-color:#006FBC"/>
		</linearGradient>
		
			<path id="path50" inkscape:export-ydpi="1232.2738" inkscape:export-filename="C:\Users\suitedoalex\sites\jcb-logo-1.png" inkscape:export-xdpi="1232.2738" fill="url(#path50_1_)" d="
			M643.714,102.066c-59.341,0-108,48.066-108,108v266.44c30.264,14.835,61.714,24.33,93.165,24.33
			c37.385,0,57.56-22.549,57.56-53.407V321.626h92.571v125.209c0,48.659-30.264,88.418-132.923,88.418
			c-62.308,0-110.967-13.648-110.967-13.648v227.275h158.44c59.341,0,108-48.066,108-108V102.066H643.714z"/>
		
			<linearGradient id="path63_1_" gradientUnits="userSpaceOnUse" x1="6.2883" y1="1040.7054" x2="45.6836" y2="1040.7054" gradientTransform="matrix(6.6758 0 0 -6.6758 790.6756 7373.6323)">
			<stop  offset="0" style="stop-color:#6C2C2F"/>
			<stop  offset="0.1735" style="stop-color:#882730"/>
			<stop  offset="0.5731" style="stop-color:#BE1833"/>
			<stop  offset="0.8585" style="stop-color:#DC0436"/>
			<stop  offset="1" style="stop-color:#E60039"/>
		</linearGradient>
		
			<path id="path63" inkscape:export-ydpi="1232.2738" inkscape:export-filename="C:\Users\suitedoalex\sites\jcb-logo-1.png" inkscape:export-xdpi="1232.2738" fill="url(#path63_1_)" d="
			M942.198,102.066c-59.341,0-108,48.066-108,108v141.231c27.297-23.143,74.769-37.978,151.319-34.418
			c40.945,1.78,84.857,13.055,84.857,13.055v45.692c-21.956-11.275-48.066-21.363-81.89-23.736
			c-58.154-4.154-93.165,24.33-93.165,74.176c0,50.44,35.011,78.923,93.165,74.176c33.824-2.374,59.934-13.055,81.89-23.736v45.692
			c0,0-43.319,11.275-84.857,13.055c-76.549,3.56-124.022-11.275-151.319-34.418v249.231h158.44c59.341,0,108-48.066,108-108v-540
			H942.198z"/>
	</g>
</g>
</svg>
